<svg width="25" height="24" viewBox="0 0 25 24" fill="none" xmlns="http://www.w3.org/2000/svg">
<path opacity="0.9" fill-rule="evenodd" clip-rule="evenodd" d="M12.25 2.25012C5.051 2.25012 2.5 4.80212 2.5 12.0001C2.5 19.1981 5.051 21.7501 12.25 21.7501C19.448 21.7501 22 19.1981 22 12.0001C22 4.80212 19.448 2.25012 12.25 2.25012Z" fill="orange"/>
<path d="M12.5712 16.498C12.7152 16.498 12.8592 16.457 12.9872 16.371C14.2202 15.545 17.0902 13.466 17.0902 12C17.0902 10.534 14.2212 8.45204 12.9882 7.62504C12.6412 7.39404 12.1772 7.48604 11.9472 7.83004C11.7162 8.17404 11.8082 8.64104 12.1522 8.87104C13.3192 9.65304 14.4322 10.582 15.0622 11.25H8.16016C7.74616 11.25 7.41016 11.586 7.41016 12C7.41016 12.414 7.74616 12.75 8.16016 12.75H15.0602C14.4352 13.418 13.3352 14.333 12.1532 15.125C11.8082 15.355 11.7162 15.821 11.9472 16.165C12.0912 16.382 12.3292 16.498 12.5712 16.498Z" fill="white"/>
</svg>
