<svg width="25" height="24" viewBox="0 0 25 24" fill="none" xmlns="http://www.w3.org/2000/svg">
<path fill-rule="evenodd" clip-rule="evenodd" d="M17.9068 10.6981H17.8818C17.4678 10.6831 17.1428 10.3371 17.1568 9.9231C17.1888 8.9721 16.7238 8.3551 15.9128 8.2721C15.5008 8.2301 15.2008 7.8621 15.2428 7.4501C15.2858 7.0391 15.6558 6.7361 16.0658 6.7801C17.6738 6.9441 18.7148 8.2271 18.6558 9.9731C18.6418 10.3791 18.3088 10.6981 17.9068 10.6981ZM17.8248 3.2841C16.1048 2.7341 13.7238 2.9621 12.2378 4.6481C10.6768 2.9741 8.37679 2.7311 6.66879 3.2851C2.75379 4.5451 1.53279 9.0811 2.64679 12.5601V12.5611C4.40479 18.0321 10.2498 20.9831 12.2518 20.9831C14.0388 20.9831 20.1158 18.0871 21.8538 12.5601C22.9678 9.0821 21.7438 4.5461 17.8248 3.2841Z" fill="black"/>
</svg>
