<svg width="509" height="368" viewBox="0 0 509 368" fill="none" xmlns="http://www.w3.org/2000/svg">
<path d="M115.214 284.913C96.6147 259.241 85.4722 228.928 83.0167 197.323C80.5613 165.717 86.8883 134.047 101.299 105.811C115.71 77.5748 137.644 53.8705 164.679 37.3158C191.715 20.7611 222.799 12 254.5 12L254.5 184L115.214 284.913Z" fill="#3CC3DF"/>
<path d="M254.5 27.7312C280.639 27.7312 306.359 34.2878 329.308 46.8007C352.257 59.3136 371.701 77.3831 385.859 99.3551C400.017 121.327 408.438 146.499 410.35 172.568C412.262 198.636 407.605 224.768 396.804 248.571L254.5 184L254.5 27.7312Z" fill="#8979FF"/>
<path d="M403.352 251.542C391.529 277.598 373.073 300.095 349.83 316.782C326.587 333.47 299.37 343.764 270.901 346.634C242.432 349.505 213.708 344.853 187.601 333.142C161.493 321.432 138.918 303.073 122.13 279.902L254.5 184L403.352 251.542Z" fill="#FF928A"/>
<path d="M307.707 133.83V125.103H312.94V126.04H308.764V128.989H312.548V129.927H308.764V133.83H307.707ZM314.614 133.83V127.285H315.619V133.83H314.614ZM315.125 126.194C314.929 126.194 314.76 126.127 314.618 125.993C314.479 125.86 314.409 125.699 314.409 125.512C314.409 125.324 314.479 125.164 314.618 125.03C314.76 124.897 314.929 124.83 315.125 124.83C315.321 124.83 315.489 124.897 315.628 125.03C315.77 125.164 315.841 125.324 315.841 125.512C315.841 125.699 315.77 125.86 315.628 125.993C315.489 126.127 315.321 126.194 315.125 126.194ZM320.104 136.421C319.618 136.421 319.2 136.358 318.851 136.233C318.501 136.111 318.21 135.949 317.977 135.748C317.747 135.549 317.564 135.336 317.427 135.108L318.229 134.546C318.319 134.665 318.434 134.802 318.574 134.955C318.713 135.111 318.903 135.246 319.145 135.36C319.389 135.476 319.709 135.535 320.104 135.535C320.632 135.535 321.068 135.407 321.412 135.151C321.756 134.895 321.927 134.495 321.927 133.949V132.62H321.842C321.768 132.739 321.663 132.887 321.527 133.063C321.393 133.236 321.2 133.391 320.947 133.527C320.697 133.661 320.359 133.728 319.933 133.728C319.405 133.728 318.93 133.603 318.51 133.353C318.092 133.103 317.761 132.739 317.517 132.262C317.275 131.785 317.155 131.205 317.155 130.523C317.155 129.853 317.273 129.269 317.508 128.772C317.744 128.272 318.072 127.885 318.493 127.613C318.913 127.337 319.399 127.199 319.95 127.199C320.376 127.199 320.714 127.27 320.964 127.412C321.217 127.552 321.41 127.711 321.544 127.89C321.68 128.066 321.785 128.211 321.859 128.324H321.961V127.285H322.933V134.018C322.933 134.58 322.805 135.037 322.55 135.39C322.297 135.745 321.956 136.005 321.527 136.17C321.101 136.337 320.626 136.421 320.104 136.421ZM320.069 132.824C320.473 132.824 320.814 132.732 321.092 132.547C321.371 132.363 321.582 132.097 321.727 131.75C321.872 131.404 321.944 130.989 321.944 130.506C321.944 130.035 321.873 129.618 321.731 129.258C321.589 128.897 321.379 128.614 321.101 128.41C320.822 128.205 320.479 128.103 320.069 128.103C319.643 128.103 319.288 128.211 319.004 128.427C318.723 128.643 318.511 128.932 318.369 129.296C318.23 129.66 318.16 130.063 318.16 130.506C318.16 130.961 318.231 131.363 318.373 131.712C318.518 132.059 318.731 132.331 319.013 132.53C319.297 132.726 319.649 132.824 320.069 132.824ZM324.774 133.83V127.285H325.746V128.307H325.831C325.967 127.958 326.187 127.687 326.491 127.493C326.795 127.297 327.16 127.199 327.586 127.199C328.018 127.199 328.378 127.297 328.665 127.493C328.954 127.687 329.18 127.958 329.342 128.307H329.41C329.578 127.969 329.829 127.701 330.165 127.502C330.5 127.3 330.902 127.199 331.371 127.199C331.956 127.199 332.434 127.383 332.807 127.749C333.179 128.113 333.365 128.679 333.365 129.449V133.83H332.359V129.449C332.359 128.966 332.227 128.621 331.963 128.414C331.699 128.206 331.388 128.103 331.03 128.103C330.569 128.103 330.213 128.242 329.96 128.52C329.707 128.796 329.581 129.145 329.581 129.569V133.83H328.558V129.347C328.558 128.975 328.437 128.675 328.196 128.448C327.954 128.218 327.643 128.103 327.263 128.103C327.001 128.103 326.757 128.172 326.53 128.312C326.305 128.451 326.123 128.644 325.984 128.891C325.848 129.135 325.78 129.418 325.78 129.739V133.83H324.774ZM337.13 133.983C336.715 133.983 336.339 133.905 336.001 133.749C335.662 133.59 335.394 133.361 335.195 133.063C334.996 132.762 334.897 132.398 334.897 131.972C334.897 131.597 334.971 131.293 335.118 131.06C335.266 130.824 335.464 130.64 335.711 130.506C335.958 130.373 336.231 130.273 336.529 130.208C336.83 130.14 337.133 130.086 337.437 130.046C337.834 129.995 338.157 129.956 338.404 129.931C338.654 129.902 338.836 129.856 338.949 129.79C339.066 129.725 339.124 129.611 339.124 129.449V129.415C339.124 128.995 339.009 128.668 338.779 128.435C338.552 128.202 338.206 128.086 337.743 128.086C337.263 128.086 336.887 128.191 336.614 128.401C336.341 128.611 336.15 128.836 336.039 129.074L335.084 128.733C335.255 128.336 335.482 128.026 335.766 127.804C336.053 127.58 336.366 127.424 336.704 127.336C337.045 127.245 337.38 127.199 337.709 127.199C337.92 127.199 338.161 127.225 338.434 127.276C338.709 127.324 338.975 127.425 339.231 127.579C339.489 127.732 339.704 127.964 339.874 128.273C340.045 128.583 340.13 128.998 340.13 129.518V133.83H339.124V132.944H339.073C339.005 133.086 338.891 133.238 338.732 133.4C338.573 133.562 338.361 133.699 338.097 133.813C337.833 133.927 337.51 133.983 337.13 133.983ZM337.283 133.08C337.681 133.08 338.016 133.002 338.289 132.846C338.564 132.689 338.772 132.488 338.911 132.241C339.053 131.993 339.124 131.733 339.124 131.461V130.54C339.081 130.591 338.988 130.638 338.843 130.681C338.701 130.721 338.536 130.756 338.349 130.787C338.164 130.816 337.983 130.841 337.807 130.864C337.634 130.884 337.493 130.901 337.385 130.915C337.124 130.949 336.88 131.005 336.653 131.081C336.428 131.155 336.246 131.268 336.107 131.418C335.971 131.566 335.903 131.768 335.903 132.023C335.903 132.373 336.032 132.637 336.29 132.816C336.552 132.992 336.883 133.08 337.283 133.08Z" fill="white"/>
<path d="M310.976 142.103V150.83H309.395V143.641H309.344L307.302 144.945V143.496L309.471 142.103H310.976ZM316.226 150.949C315.657 150.949 315.149 150.843 314.7 150.63C314.251 150.414 313.895 150.118 313.631 149.743C313.369 149.368 313.23 148.939 313.213 148.456H314.747C314.775 148.814 314.93 149.107 315.211 149.334C315.493 149.559 315.831 149.671 316.226 149.671C316.535 149.671 316.811 149.6 317.052 149.458C317.294 149.316 317.484 149.118 317.623 148.866C317.763 148.613 317.831 148.324 317.828 148C317.831 147.671 317.761 147.378 317.619 147.123C317.477 146.867 317.282 146.667 317.035 146.522C316.788 146.374 316.504 146.3 316.183 146.3C315.922 146.297 315.665 146.346 315.412 146.445C315.159 146.545 314.959 146.675 314.811 146.837L313.383 146.603L313.839 142.103H318.902V143.424H315.148L314.896 145.738H314.947C315.109 145.547 315.338 145.39 315.633 145.265C315.929 145.137 316.253 145.073 316.605 145.073C317.133 145.073 317.605 145.198 318.02 145.448C318.434 145.695 318.761 146.036 319 146.471C319.238 146.905 319.358 147.402 319.358 147.962C319.358 148.539 319.224 149.053 318.957 149.505C318.693 149.954 318.325 150.307 317.854 150.566C317.385 150.821 316.842 150.949 316.226 150.949ZM320.785 150.83V149.688L323.815 146.718C324.105 146.425 324.346 146.165 324.54 145.938C324.733 145.711 324.878 145.491 324.974 145.277C325.071 145.064 325.119 144.837 325.119 144.596C325.119 144.32 325.057 144.084 324.932 143.888C324.807 143.689 324.635 143.536 324.416 143.428C324.197 143.32 323.949 143.266 323.67 143.266C323.383 143.266 323.132 143.326 322.916 143.445C322.7 143.562 322.532 143.728 322.413 143.944C322.297 144.16 322.238 144.417 322.238 144.715H320.734C320.734 144.161 320.861 143.679 321.113 143.27C321.366 142.861 321.714 142.545 322.157 142.32C322.604 142.096 323.115 141.983 323.692 141.983C324.277 141.983 324.791 142.093 325.234 142.312C325.677 142.53 326.021 142.83 326.265 143.211C326.513 143.591 326.636 144.026 326.636 144.515C326.636 144.841 326.574 145.162 326.449 145.478C326.324 145.793 326.104 146.143 325.788 146.526C325.476 146.91 325.037 147.374 324.471 147.92L322.967 149.449V149.509H326.768V150.83H320.785ZM329.206 150.924C328.947 150.924 328.726 150.833 328.541 150.651C328.356 150.469 328.265 150.248 328.268 149.986C328.265 149.731 328.356 149.512 328.541 149.33C328.726 149.148 328.947 149.057 329.206 149.057C329.456 149.057 329.673 149.148 329.858 149.33C330.045 149.512 330.14 149.731 330.143 149.986C330.14 150.16 330.095 150.317 330.007 150.459C329.922 150.601 329.808 150.715 329.666 150.8C329.527 150.883 329.373 150.924 329.206 150.924ZM331.757 150.83L335.469 143.483V143.424H331.161V142.103H337.105V143.454L333.398 150.83H331.757ZM341.407 150.949C340.774 150.949 340.211 150.843 339.72 150.63C339.231 150.417 338.847 150.125 338.569 149.756C338.294 149.384 338.157 148.962 338.16 148.491C338.157 148.124 338.237 147.787 338.399 147.481C338.561 147.174 338.779 146.918 339.055 146.714C339.333 146.506 339.643 146.374 339.984 146.317V146.258C339.535 146.158 339.171 145.929 338.893 145.571C338.617 145.211 338.481 144.795 338.484 144.323C338.481 143.874 338.606 143.473 338.859 143.121C339.112 142.769 339.458 142.492 339.899 142.29C340.339 142.086 340.842 141.983 341.407 141.983C341.967 141.983 342.465 142.086 342.903 142.29C343.343 142.492 343.69 142.769 343.943 143.121C344.198 143.473 344.326 143.874 344.326 144.323C344.326 144.795 344.186 145.211 343.904 145.571C343.626 145.929 343.267 146.158 342.826 146.258V146.317C343.167 146.374 343.474 146.506 343.747 146.714C344.022 146.918 344.241 147.174 344.403 147.481C344.568 147.787 344.65 148.124 344.65 148.491C344.65 148.962 344.511 149.384 344.232 149.756C343.954 150.125 343.57 150.417 343.082 150.63C342.596 150.843 342.038 150.949 341.407 150.949ZM341.407 149.731C341.734 149.731 342.018 149.675 342.259 149.564C342.501 149.451 342.688 149.292 342.822 149.087C342.955 148.883 343.024 148.647 343.026 148.38C343.024 148.101 342.951 147.856 342.809 147.643C342.67 147.427 342.478 147.258 342.234 147.135C341.992 147.013 341.717 146.952 341.407 146.952C341.095 146.952 340.816 147.013 340.572 147.135C340.328 147.258 340.134 147.427 339.992 147.643C339.853 147.856 339.785 148.101 339.788 148.38C339.785 148.647 339.85 148.883 339.984 149.087C340.117 149.289 340.305 149.446 340.546 149.56C340.791 149.674 341.078 149.731 341.407 149.731ZM341.407 145.755C341.674 145.755 341.91 145.701 342.115 145.593C342.322 145.485 342.485 145.334 342.605 145.141C342.724 144.948 342.785 144.725 342.788 144.472C342.785 144.222 342.725 144.003 342.609 143.816C342.492 143.625 342.33 143.479 342.123 143.377C341.916 143.272 341.677 143.219 341.407 143.219C341.132 143.219 340.889 143.272 340.678 143.377C340.471 143.479 340.309 143.625 340.193 143.816C340.079 144.003 340.024 144.222 340.026 144.472C340.024 144.725 340.08 144.948 340.197 145.141C340.316 145.331 340.48 145.482 340.687 145.593C340.897 145.701 341.137 145.755 341.407 145.755Z" fill="white"/>
<path d="M249.775 262.164C249.724 261.732 249.517 261.397 249.153 261.159C248.79 260.92 248.344 260.801 247.815 260.801C247.429 260.801 247.091 260.863 246.801 260.988C246.514 261.113 246.29 261.285 246.128 261.504C245.969 261.722 245.889 261.971 245.889 262.249C245.889 262.482 245.944 262.683 246.055 262.85C246.169 263.015 246.314 263.153 246.49 263.264C246.666 263.372 246.851 263.461 247.044 263.532C247.237 263.6 247.415 263.656 247.576 263.698L248.463 263.937C248.69 263.997 248.943 264.079 249.221 264.184C249.503 264.289 249.771 264.433 250.027 264.614C250.285 264.793 250.498 265.024 250.666 265.305C250.834 265.586 250.917 265.931 250.917 266.34C250.917 266.812 250.794 267.238 250.547 267.619C250.302 267.999 249.944 268.302 249.473 268.526C249.004 268.751 248.434 268.863 247.764 268.863C247.139 268.863 246.598 268.762 246.14 268.561C245.686 268.359 245.328 268.078 245.067 267.717C244.808 267.356 244.662 266.937 244.628 266.46H245.719C245.747 266.789 245.858 267.062 246.051 267.278C246.247 267.491 246.494 267.65 246.792 267.755C247.094 267.857 247.417 267.909 247.764 267.909C248.167 267.909 248.53 267.843 248.851 267.712C249.172 267.579 249.426 267.394 249.613 267.159C249.801 266.92 249.895 266.641 249.895 266.323C249.895 266.034 249.814 265.798 249.652 265.616C249.49 265.434 249.277 265.286 249.013 265.173C248.748 265.059 248.463 264.96 248.156 264.874L247.082 264.568C246.4 264.372 245.861 264.092 245.463 263.728C245.065 263.364 244.866 262.889 244.866 262.301C244.866 261.812 244.998 261.386 245.263 261.022C245.53 260.656 245.888 260.372 246.336 260.17C246.788 259.965 247.292 259.863 247.849 259.863C248.412 259.863 248.912 259.964 249.349 260.166C249.787 260.364 250.133 260.637 250.389 260.984C250.648 261.33 250.784 261.724 250.798 262.164H249.775ZM253.456 266.323L253.439 265.079H253.644L256.507 262.164H257.752L254.7 265.249H254.615L253.456 266.323ZM252.519 268.71V259.982H253.524V268.71H252.519ZM256.678 268.71L254.121 265.471L254.837 264.772L257.956 268.71H256.678ZM261.521 268.846C260.89 268.846 260.346 268.707 259.889 268.428C259.434 268.147 259.083 267.755 258.836 267.252C258.592 266.747 258.47 266.159 258.47 265.488C258.47 264.818 258.592 264.227 258.836 263.715C259.083 263.201 259.427 262.801 259.867 262.514C260.311 262.224 260.828 262.079 261.418 262.079C261.759 262.079 262.096 262.136 262.428 262.249C262.761 262.363 263.063 262.548 263.336 262.803C263.609 263.056 263.826 263.391 263.988 263.809C264.15 264.227 264.231 264.741 264.231 265.352V265.778H259.186V264.909H263.208C263.208 264.539 263.134 264.21 262.987 263.92C262.842 263.63 262.634 263.401 262.364 263.234C262.097 263.066 261.782 262.982 261.418 262.982C261.018 262.982 260.671 263.082 260.379 263.281C260.089 263.477 259.866 263.732 259.71 264.048C259.553 264.363 259.475 264.701 259.475 265.062V265.641C259.475 266.136 259.561 266.555 259.731 266.899C259.904 267.239 260.144 267.499 260.451 267.678C260.758 267.855 261.114 267.943 261.521 267.943C261.785 267.943 262.024 267.906 262.237 267.832C262.453 267.755 262.639 267.641 262.795 267.491C262.951 267.337 263.072 267.147 263.157 266.92L264.129 267.193C264.026 267.522 263.855 267.812 263.613 268.062C263.372 268.309 263.073 268.502 262.718 268.641C262.363 268.778 261.964 268.846 261.521 268.846ZM268.607 262.164V263.016H265.215V262.164H268.607ZM266.204 260.596H267.21V266.835C267.21 267.119 267.251 267.332 267.333 267.474C267.418 267.613 267.526 267.707 267.657 267.755C267.791 267.801 267.931 267.823 268.079 267.823C268.19 267.823 268.281 267.818 268.352 267.806C268.423 267.792 268.48 267.781 268.522 267.772L268.727 268.676C268.659 268.701 268.563 268.727 268.441 268.752C268.319 268.781 268.164 268.795 267.977 268.795C267.693 268.795 267.414 268.734 267.141 268.612C266.872 268.489 266.647 268.303 266.468 268.053C266.292 267.803 266.204 267.488 266.204 267.107V260.596ZM272.709 268.846C272.095 268.846 271.567 268.701 271.124 268.411C270.681 268.122 270.34 267.722 270.101 267.214C269.862 266.705 269.743 266.124 269.743 265.471C269.743 264.806 269.865 264.22 270.11 263.711C270.357 263.2 270.7 262.801 271.141 262.514C271.584 262.224 272.101 262.079 272.692 262.079C273.152 262.079 273.567 262.164 273.936 262.335C274.306 262.505 274.608 262.744 274.844 263.051C275.08 263.357 275.226 263.715 275.283 264.124H274.277C274.2 263.826 274.03 263.562 273.766 263.332C273.504 263.099 273.152 262.982 272.709 262.982C272.317 262.982 271.973 263.085 271.678 263.289C271.385 263.491 271.156 263.776 270.992 264.146C270.83 264.512 270.749 264.943 270.749 265.437C270.749 265.943 270.828 266.383 270.987 266.758C271.149 267.133 271.377 267.424 271.669 267.632C271.965 267.839 272.311 267.943 272.709 267.943C272.97 267.943 273.208 267.897 273.421 267.806C273.634 267.715 273.814 267.585 273.962 267.414C274.11 267.244 274.215 267.039 274.277 266.801H275.283C275.226 267.187 275.085 267.535 274.861 267.845C274.639 268.151 274.345 268.396 273.979 268.578C273.615 268.757 273.192 268.846 272.709 268.846ZM277.759 264.772V268.71H276.753V259.982H277.759V263.187H277.844C277.997 262.849 278.227 262.58 278.534 262.382C278.844 262.18 279.256 262.079 279.77 262.079C280.216 262.079 280.607 262.168 280.942 262.347C281.277 262.524 281.537 262.795 281.722 263.161C281.909 263.525 282.003 263.988 282.003 264.551V268.71H280.997V264.619C280.997 264.099 280.862 263.697 280.592 263.413C280.325 263.126 279.955 262.982 279.48 262.982C279.151 262.982 278.855 263.052 278.594 263.191C278.335 263.33 278.131 263.534 277.98 263.801C277.833 264.068 277.759 264.391 277.759 264.772Z" fill="white"/>
<path d="M248.271 276.982V285.71H246.69V278.521H246.639L244.598 279.825V278.376L246.767 276.982H248.271ZM253.521 285.829C252.953 285.829 252.444 285.722 251.996 285.509C251.547 285.293 251.19 284.998 250.926 284.623C250.665 284.248 250.525 283.819 250.508 283.336H252.042C252.071 283.694 252.226 283.987 252.507 284.214C252.788 284.438 253.126 284.551 253.521 284.551C253.831 284.551 254.106 284.48 254.348 284.337C254.589 284.195 254.78 283.998 254.919 283.745C255.058 283.492 255.126 283.204 255.123 282.88C255.126 282.551 255.057 282.258 254.915 282.002C254.773 281.747 254.578 281.546 254.331 281.401C254.084 281.254 253.799 281.18 253.478 281.18C253.217 281.177 252.96 281.225 252.707 281.325C252.454 281.424 252.254 281.555 252.106 281.717L250.679 281.482L251.135 276.982H256.197V278.303H252.443L252.192 280.617H252.243C252.405 280.427 252.633 280.269 252.929 280.144C253.224 280.016 253.548 279.953 253.9 279.953C254.429 279.953 254.9 280.078 255.315 280.328C255.73 280.575 256.057 280.916 256.295 281.35C256.534 281.785 256.653 282.282 256.653 282.842C256.653 283.418 256.52 283.933 256.253 284.384C255.988 284.833 255.621 285.187 255.149 285.445C254.68 285.701 254.138 285.829 253.521 285.829ZM261.111 276.863C261.528 276.866 261.934 276.94 262.329 277.085C262.727 277.227 263.085 277.46 263.403 277.784C263.721 278.105 263.974 278.535 264.162 279.075C264.349 279.614 264.443 280.282 264.443 281.078C264.446 281.828 264.366 282.498 264.204 283.089C264.045 283.677 263.817 284.174 263.518 284.58C263.22 284.987 262.861 285.296 262.44 285.509C262.02 285.722 261.547 285.829 261.021 285.829C260.47 285.829 259.981 285.721 259.555 285.505C259.132 285.289 258.79 284.994 258.528 284.619C258.267 284.244 258.106 283.815 258.047 283.332H259.602C259.682 283.678 259.844 283.954 260.088 284.159C260.335 284.36 260.646 284.461 261.021 284.461C261.626 284.461 262.092 284.198 262.419 283.673C262.746 283.147 262.909 282.417 262.909 281.482H262.849C262.71 281.732 262.53 281.948 262.308 282.13C262.086 282.309 261.835 282.447 261.554 282.543C261.275 282.64 260.98 282.688 260.667 282.688C260.156 282.688 259.696 282.566 259.287 282.322C258.88 282.078 258.558 281.742 258.319 281.316C258.084 280.89 257.964 280.403 257.961 279.855C257.961 279.286 258.092 278.776 258.353 278.325C258.618 277.87 258.986 277.512 259.457 277.251C259.929 276.987 260.48 276.857 261.111 276.863ZM261.115 278.141C260.808 278.141 260.531 278.217 260.284 278.367C260.04 278.515 259.846 278.717 259.704 278.972C259.565 279.225 259.496 279.508 259.496 279.82C259.498 280.13 259.568 280.411 259.704 280.664C259.844 280.917 260.032 281.117 260.271 281.265C260.513 281.413 260.788 281.487 261.098 281.487C261.328 281.487 261.542 281.443 261.741 281.355C261.94 281.266 262.113 281.144 262.261 280.988C262.412 280.829 262.528 280.649 262.611 280.447C262.696 280.245 262.737 280.032 262.734 279.808C262.734 279.509 262.663 279.234 262.521 278.981C262.382 278.728 262.19 278.525 261.946 278.372C261.704 278.218 261.427 278.141 261.115 278.141ZM266.489 285.803C266.231 285.803 266.009 285.712 265.825 285.531C265.64 285.349 265.549 285.127 265.552 284.866C265.549 284.61 265.64 284.391 265.825 284.21C266.009 284.028 266.231 283.937 266.489 283.937C266.739 283.937 266.957 284.028 267.141 284.21C267.329 284.391 267.424 284.61 267.427 284.866C267.424 285.039 267.379 285.197 267.291 285.339C267.205 285.481 267.092 285.595 266.95 285.68C266.811 285.762 266.657 285.803 266.489 285.803ZM271.777 285.829C271.143 285.829 270.581 285.722 270.089 285.509C269.601 285.296 269.217 285.005 268.939 284.636C268.663 284.264 268.527 283.842 268.53 283.37C268.527 283.004 268.606 282.667 268.768 282.36C268.93 282.053 269.149 281.798 269.424 281.593C269.703 281.386 270.013 281.254 270.353 281.197V281.137C269.905 281.038 269.541 280.809 269.263 280.451C268.987 280.09 268.851 279.674 268.853 279.203C268.851 278.754 268.976 278.353 269.228 278.001C269.481 277.649 269.828 277.372 270.268 277.17C270.709 276.965 271.211 276.863 271.777 276.863C272.336 276.863 272.835 276.965 273.273 277.17C273.713 277.372 274.059 277.649 274.312 278.001C274.568 278.353 274.696 278.754 274.696 279.203C274.696 279.674 274.555 280.09 274.274 280.451C273.996 280.809 273.636 281.038 273.196 281.137V281.197C273.537 281.254 273.844 281.386 274.116 281.593C274.392 281.798 274.611 282.053 274.773 282.36C274.937 282.667 275.02 283.004 275.02 283.37C275.02 283.842 274.88 284.264 274.602 284.636C274.324 285.005 273.94 285.296 273.451 285.509C272.966 285.722 272.407 285.829 271.777 285.829ZM271.777 284.61C272.103 284.61 272.388 284.555 272.629 284.444C272.871 284.33 273.058 284.171 273.192 283.967C273.325 283.762 273.393 283.526 273.396 283.259C273.393 282.981 273.321 282.735 273.179 282.522C273.04 282.306 272.848 282.137 272.603 282.015C272.362 281.893 272.086 281.832 271.777 281.832C271.464 281.832 271.186 281.893 270.942 282.015C270.697 282.137 270.504 282.306 270.362 282.522C270.223 282.735 270.155 282.981 270.157 283.259C270.155 283.526 270.22 283.762 270.353 283.967C270.487 284.168 270.674 284.326 270.916 284.44C271.16 284.553 271.447 284.61 271.777 284.61ZM271.777 280.634C272.044 280.634 272.28 280.58 272.484 280.472C272.692 280.364 272.855 280.214 272.974 280.021C273.094 279.828 273.155 279.605 273.157 279.352C273.155 279.102 273.095 278.883 272.978 278.695C272.862 278.505 272.7 278.359 272.493 278.257C272.285 278.151 272.047 278.099 271.777 278.099C271.501 278.099 271.258 278.151 271.048 278.257C270.841 278.359 270.679 278.505 270.562 278.695C270.449 278.883 270.393 279.102 270.396 279.352C270.393 279.605 270.45 279.828 270.567 280.021C270.686 280.211 270.849 280.362 271.057 280.472C271.267 280.58 271.507 280.634 271.777 280.634ZM279.97 276.982V285.71H278.389V278.521H278.338L276.297 279.825V278.376L278.466 276.982H279.97Z" fill="white"/>
<path d="M154.004 128.624L156.254 132.255H156.322L158.572 128.624H159.817L157.072 132.988L159.817 137.351H158.572L156.322 133.789H156.254L154.004 137.351H152.76L155.572 132.988L152.76 128.624H154.004ZM163.885 137.351H161.192V128.624H164.005C164.851 128.624 165.576 128.799 166.178 129.148C166.78 129.495 167.242 129.993 167.563 130.644C167.884 131.292 168.044 132.067 168.044 132.971C168.044 133.88 167.882 134.663 167.559 135.319C167.235 135.972 166.763 136.475 166.144 136.827C165.524 137.177 164.772 137.351 163.885 137.351ZM162.249 136.414H163.817C164.539 136.414 165.137 136.275 165.611 135.996C166.086 135.718 166.439 135.322 166.672 134.807C166.905 134.293 167.022 133.681 167.022 132.971C167.022 132.266 166.907 131.66 166.676 131.151C166.446 130.64 166.103 130.248 165.645 129.975C165.188 129.699 164.618 129.562 163.936 129.562H162.249V136.414Z" fill="white"/>
<path d="M156.761 145.624V154.351H155.18V147.163H155.129L153.088 148.466V147.018L155.257 145.624H156.761ZM162.173 154.471C161.756 154.468 161.348 154.395 160.95 154.253C160.553 154.109 160.195 153.874 159.876 153.55C159.558 153.224 159.305 152.79 159.118 152.251C158.93 151.708 158.838 151.036 158.841 150.235C158.841 149.488 158.92 148.822 159.08 148.236C159.239 147.651 159.467 147.157 159.766 146.753C160.064 146.347 160.423 146.038 160.844 145.824C161.267 145.611 161.74 145.505 162.263 145.505C162.811 145.505 163.297 145.613 163.72 145.829C164.146 146.045 164.49 146.34 164.751 146.715C165.013 147.087 165.175 147.508 165.237 147.976H163.682C163.602 147.641 163.439 147.374 163.192 147.175C162.947 146.974 162.638 146.873 162.263 146.873C161.658 146.873 161.192 147.136 160.865 147.661C160.541 148.187 160.378 148.908 160.375 149.826H160.435C160.574 149.576 160.754 149.361 160.976 149.182C161.197 149.003 161.447 148.866 161.726 148.769C162.007 148.67 162.304 148.62 162.616 148.62C163.128 148.62 163.587 148.742 163.993 148.986C164.402 149.231 164.726 149.567 164.964 149.996C165.203 150.422 165.321 150.911 165.318 151.462C165.321 152.036 165.19 152.552 164.926 153.009C164.662 153.464 164.294 153.822 163.822 154.083C163.351 154.344 162.801 154.474 162.173 154.471ZM162.165 153.192C162.474 153.192 162.751 153.117 162.996 152.966C163.24 152.816 163.433 152.613 163.575 152.357C163.717 152.101 163.787 151.815 163.784 151.496C163.787 151.184 163.719 150.901 163.58 150.648C163.443 150.395 163.254 150.195 163.013 150.047C162.771 149.9 162.496 149.826 162.186 149.826C161.956 149.826 161.741 149.87 161.543 149.958C161.344 150.046 161.17 150.168 161.023 150.324C160.875 150.478 160.758 150.657 160.673 150.861C160.591 151.063 160.548 151.279 160.545 151.509C160.548 151.813 160.619 152.093 160.758 152.349C160.898 152.604 161.089 152.809 161.334 152.962C161.578 153.116 161.855 153.192 162.165 153.192ZM169.861 154.471C169.227 154.471 168.665 154.364 168.173 154.151C167.685 153.938 167.301 153.647 167.023 153.278C166.747 152.905 166.611 152.484 166.614 152.012C166.611 151.645 166.69 151.309 166.852 151.002C167.014 150.695 167.233 150.44 167.508 150.235C167.787 150.028 168.097 149.895 168.437 149.839V149.779C167.989 149.68 167.625 149.451 167.347 149.093C167.071 148.732 166.935 148.316 166.937 147.844C166.935 147.395 167.06 146.995 167.312 146.643C167.565 146.29 167.912 146.013 168.352 145.812C168.793 145.607 169.295 145.505 169.861 145.505C170.42 145.505 170.919 145.607 171.356 145.812C171.797 146.013 172.143 146.29 172.396 146.643C172.652 146.995 172.78 147.395 172.78 147.844C172.78 148.316 172.639 148.732 172.358 149.093C172.08 149.451 171.72 149.68 171.28 149.779V149.839C171.621 149.895 171.928 150.028 172.2 150.235C172.476 150.44 172.695 150.695 172.856 151.002C173.021 151.309 173.104 151.645 173.104 152.012C173.104 152.484 172.964 152.905 172.686 153.278C172.408 153.647 172.024 153.938 171.535 154.151C171.05 154.364 170.491 154.471 169.861 154.471ZM169.861 153.252C170.187 153.252 170.472 153.197 170.713 153.086C170.955 152.972 171.142 152.813 171.276 152.609C171.409 152.404 171.477 152.168 171.48 151.901C171.477 151.623 171.405 151.377 171.263 151.164C171.124 150.948 170.932 150.779 170.687 150.657C170.446 150.535 170.17 150.474 169.861 150.474C169.548 150.474 169.27 150.535 169.026 150.657C168.781 150.779 168.588 150.948 168.446 151.164C168.307 151.377 168.239 151.623 168.241 151.901C168.239 152.168 168.304 152.404 168.437 152.609C168.571 152.81 168.758 152.968 169 153.082C169.244 153.195 169.531 153.252 169.861 153.252ZM169.861 149.276C170.128 149.276 170.364 149.222 170.568 149.114C170.776 149.006 170.939 148.856 171.058 148.663C171.178 148.469 171.239 148.246 171.241 147.993C171.239 147.743 171.179 147.525 171.062 147.337C170.946 147.147 170.784 147.001 170.577 146.898C170.369 146.793 170.131 146.741 169.861 146.741C169.585 146.741 169.342 146.793 169.132 146.898C168.925 147.001 168.763 147.147 168.646 147.337C168.533 147.525 168.477 147.743 168.48 147.993C168.477 148.246 168.534 148.469 168.651 148.663C168.77 148.853 168.933 149.003 169.141 149.114C169.351 149.222 169.591 149.276 169.861 149.276ZM175.214 154.445C174.956 154.445 174.734 154.354 174.549 154.172C174.365 153.991 174.274 153.769 174.277 153.508C174.274 153.252 174.365 153.033 174.549 152.851C174.734 152.67 174.956 152.579 175.214 152.579C175.464 152.579 175.681 152.67 175.866 152.851C176.054 153.033 176.149 153.252 176.152 153.508C176.149 153.681 176.103 153.839 176.015 153.981C175.93 154.123 175.816 154.236 175.674 154.322C175.535 154.404 175.382 154.445 175.214 154.445ZM180.199 145.624V154.351H178.618V147.163H178.567L176.526 148.466V147.018L178.695 145.624H180.199ZM185.611 154.471C185.193 154.468 184.785 154.395 184.388 154.253C183.99 154.109 183.632 153.874 183.314 153.55C182.996 153.224 182.743 152.79 182.555 152.251C182.368 151.708 182.276 151.036 182.278 150.235C182.278 149.488 182.358 148.822 182.517 148.236C182.676 147.651 182.905 147.157 183.203 146.753C183.501 146.347 183.861 146.038 184.281 145.824C184.705 145.611 185.178 145.505 185.7 145.505C186.249 145.505 186.734 145.613 187.158 145.829C187.584 146.045 187.928 146.34 188.189 146.715C188.45 147.087 188.612 147.508 188.675 147.976H187.119C187.04 147.641 186.876 147.374 186.629 147.175C186.385 146.974 186.075 146.873 185.7 146.873C185.095 146.873 184.629 147.136 184.303 147.661C183.979 148.187 183.815 148.908 183.812 149.826H183.872C184.011 149.576 184.192 149.361 184.413 149.182C184.635 149.003 184.885 148.866 185.163 148.769C185.445 148.67 185.741 148.62 186.054 148.62C186.565 148.62 187.024 148.742 187.43 148.986C187.839 149.231 188.163 149.567 188.402 149.996C188.641 150.422 188.758 150.911 188.756 151.462C188.758 152.036 188.628 152.552 188.364 153.009C188.099 153.464 187.731 153.822 187.26 154.083C186.788 154.344 186.239 154.474 185.611 154.471ZM185.602 153.192C185.912 153.192 186.189 153.117 186.433 152.966C186.678 152.816 186.871 152.613 187.013 152.357C187.155 152.101 187.224 151.815 187.222 151.496C187.224 151.184 187.156 150.901 187.017 150.648C186.881 150.395 186.692 150.195 186.45 150.047C186.209 149.9 185.933 149.826 185.624 149.826C185.393 149.826 185.179 149.87 184.98 149.958C184.781 150.046 184.608 150.168 184.46 150.324C184.312 150.478 184.196 150.657 184.111 150.861C184.028 151.063 183.986 151.279 183.983 151.509C183.986 151.813 184.057 152.093 184.196 152.349C184.335 152.604 184.527 152.809 184.771 152.962C185.016 153.116 185.293 153.192 185.602 153.192Z" fill="white"/>
</svg>
