<svg width="25" height="25" viewBox="0 0 25 25" fill="none" xmlns="http://www.w3.org/2000/svg">
<path opacity="0.9" fill-rule="evenodd" clip-rule="evenodd" d="M12.25 2.85413C5.052 2.85413 2.5 5.40613 2.5 12.6041C2.5 19.8021 5.052 22.3541 12.25 22.3541C19.449 22.3541 22 19.8021 22 12.6041C22 5.40613 19.449 2.85413 12.25 2.85413Z" fill="orange"/>
<path d="M11.0397 16.0801C11.3597 16.0801 11.7027 15.9631 12.0027 15.8391C12.7097 15.5461 16.0057 13.7341 16.0057 12.4601C16.0057 11.2061 12.7797 9.42915 11.9557 9.08815C11.6217 8.94915 10.8407 8.62815 10.3687 9.09915L10.3681 9.09973C10.2335 9.23533 9.82569 9.64619 9.8147 12.4411C9.80271 15.2542 10.2294 15.6808 10.3686 15.82L10.3687 15.8201C10.5587 16.0101 10.7917 16.0801 11.0397 16.0801Z" fill="white"/>
</svg>
