<svg width="25" height="25" viewBox="0 0 25 25" fill="none" xmlns="http://www.w3.org/2000/svg">
<path fill-rule="evenodd" clip-rule="evenodd" d="M12.25 10.1918C10.92 10.1918 9.83804 11.2738 9.83804 12.6038C9.83804 13.9338 10.92 15.0158 12.25 15.0158C13.58 15.0158 14.662 13.9338 14.662 12.6038C14.662 11.2738 13.58 10.1918 12.25 10.1918Z" fill="black"/>
<path fill-rule="evenodd" clip-rule="evenodd" d="M12.25 16.5161C10.093 16.5161 8.33805 14.7611 8.33805 12.6041C8.33805 10.4471 10.093 8.69212 12.25 8.69212C14.407 8.69212 16.162 10.4471 16.162 12.6041C16.162 14.7611 14.407 16.5161 12.25 16.5161ZM12.25 4.80212C6.84805 4.80212 2.49805 9.07012 2.49805 12.6041C2.49805 16.1381 6.84805 20.4061 12.25 20.4061C17.652 20.4061 22.002 16.1381 22.002 12.6041C22.002 9.07012 17.652 4.80212 12.25 4.80212Z" fill="black"/>
</svg>
