<svg width="25" height="24" viewBox="0 0 25 24" fill="none" xmlns="http://www.w3.org/2000/svg">
<path opacity="0.4" fill-rule="evenodd" clip-rule="evenodd" d="M12.25 2.25012C5.051 2.25012 2.5 4.80112 2.5 12.0001C2.5 19.1981 5.051 21.7501 12.25 21.7501C19.449 21.7501 22 19.1981 22 12.0001C22 4.80112 19.449 2.25012 12.25 2.25012Z" fill="black"/>
<path d="M15.639 14.7669C15.895 14.7669 16.144 14.6359 16.284 14.4009C16.496 14.0459 16.38 13.5859 16.024 13.3729L12.999 11.5689V7.63293C12.999 7.21893 12.663 6.88293 12.249 6.88293C11.835 6.88293 11.499 7.21893 11.499 7.63293V11.9949C11.499 12.2579 11.638 12.5039 11.865 12.6389L15.256 14.6619C15.376 14.7329 15.509 14.7669 15.639 14.7669Z" fill="black"/>
</svg>
