<svg width="25" height="25" viewBox="0 0 25 25" fill="none" xmlns="http://www.w3.org/2000/svg">
<path fill-rule="evenodd" clip-rule="evenodd" d="M19.0279 13.3247H5.47192C5.05792 13.3247 4.72192 13.6607 4.72192 14.0747C4.72192 14.4887 5.05792 14.8247 5.47192 14.8247H6.41692C6.75592 17.4697 8.85392 19.5687 11.4999 19.9067V21.5057C11.4999 21.9197 11.8359 22.2557 12.2499 22.2557C12.6639 22.2557 12.9999 21.9197 12.9999 21.5057V19.9077C15.6459 19.5687 17.7439 17.4697 18.0829 14.8247H19.0279C19.4419 14.8247 19.7779 14.4887 19.7779 14.0747C19.7779 13.6607 19.4419 13.3247 19.0279 13.3247Z" fill="black"/>
<path opacity="0.4" fill-rule="evenodd" clip-rule="evenodd" d="M12.2535 2.95259C9.00353 2.95259 6.36353 5.59259 6.36353 8.84259V10.9826C6.36353 11.2626 6.58353 11.4826 6.86353 11.4826H17.6335C17.9135 11.4826 18.1335 11.2626 18.1335 10.9826V8.84259C18.1335 5.59259 15.4935 2.95259 12.2535 2.95259Z" fill="black"/>
<path d="M10.7532 9.64251H13.7432C14.1532 9.64251 14.4932 9.30251 14.4932 8.89251C14.4932 8.48251 14.1532 8.14251 13.7432 8.14251H10.7532C10.3432 8.14251 10.0032 8.48251 10.0032 8.89251C10.0032 9.30251 10.3432 9.64251 10.7532 9.64251Z" fill="black"/>
<path d="M12.7532 5.37251H11.7432C11.3332 5.37251 10.9932 5.71251 10.9932 6.12251C10.9932 6.53251 11.3332 6.87251 11.7432 6.87251H12.7532C13.1632 6.87251 13.5032 6.53251 13.5032 6.12251C13.5032 5.71251 13.1632 5.37251 12.7532 5.37251Z" fill="black"/>
</svg>
